<svg width="52" height="52" viewBox="0 0 52 52" fill="none" xmlns="http://www.w3.org/2000/svg">
<g opacity="0.6">
<path d="M30 31L23 31" stroke="#141B34" stroke-width="1.8" stroke-linecap="round" stroke-linejoin="round"/>
<path d="M30 27L27 27" stroke="#141B34" stroke-width="1.8" stroke-linecap="round" stroke-linejoin="round"/>
<path d="M34.5 28C34.5 31.7712 34.5 33.6569 33.2552 34.8284C32.0104 36 30.0069 36 26 36H25.2273C21.9661 36 20.3355 36 19.2031 35.2022C18.8786 34.9736 18.5906 34.7025 18.3477 34.3971C17.5 33.3313 17.5 31.7966 17.5 28.7273V26.1818C17.5 23.2186 17.5 21.7371 17.9689 20.5538C18.7228 18.6514 20.3171 17.1509 22.3384 16.4414C23.5956 16 25.1698 16 28.3182 16C30.1173 16 31.0168 16 31.7352 16.2522C32.8902 16.6576 33.8012 17.5151 34.232 18.6021C34.5 19.2783 34.5 20.1249 34.5 21.8182V28Z" stroke="#141B34" stroke-width="1.8" stroke-linejoin="round"/>
<path d="M17.5 26C17.5 24.1591 18.9924 22.6667 20.8333 22.6667C21.4991 22.6667 22.284 22.7833 22.9314 22.6099C23.5065 22.4558 23.9558 22.0065 24.1099 21.4314C24.2833 20.784 24.1667 19.9991 24.1667 19.3333C24.1667 17.4924 25.6591 16 27.5 16" stroke="#141B34" stroke-width="1.8" stroke-linecap="round" stroke-linejoin="round"/>
</g>
</svg>
