<svg width="78" height="101" viewBox="0 0 78 101" fill="none" xmlns="http://www.w3.org/2000/svg">
<path d="M0.221924 50.4968C0.221924 29.1741 17.4014 11.8034 38.7219 11.5C60.0424 11.8034 77.2219 29.1742 77.2219 50.4968V53C77.2219 74.263 59.9849 91.5 38.7219 91.5C17.459 91.5 0.221924 74.263 0.221924 53V50.4968Z" fill="#EBEBEB"/>
<path d="M0.22191 0C13.0286 18.6562 20.2217 14 30.7217 12.5C50.7217 24 42.0596 91.8457 32.0604 91.4899C22.0612 91.1341 8.26235 87.6114 0.222341 101L0.22168 84L0.22191 29.5C0.222149 13.5 -0.277507 15 0.22191 0Z" fill="#EBEBEB"/>
</svg>
